normalP052_grf.mot
version=1
nRows=30
nColumns=19
inDegrees=yes
endheader
time	1_ground_force_vx	1_ground_force_vy	1_ground_force_vz	1_ground_force_px	1_ground_force_py	1_ground_force_pz	1_ground_torque_x	1_ground_torque_y	1_ground_torque_z	2_ground_force_vx	2_ground_force_vy	2_ground_force_vz	2_ground_force_px	2_ground_force_py	2_ground_force_pz	2_ground_torque_x	2_ground_torque_y	2_ground_torque_z
            2.125000	           -0.065407	            0.320239	            0.033185	            0.410830	            0.001970	           -0.200959	            0.014143	           -0.001710	            0.027986	          -33.502851	          568.862565	           30.292670	            0.962950	            0.000375	           -0.303785	            0.032649	           -0.554369	           -0.029521
            2.126000	           -0.073879	            0.161042	            0.025148	            0.410830	            0.001970	           -0.200959	           -0.086325	            0.001505	            0.069405	          -33.041042	          565.580668	           30.090099	            0.963901	            0.000371	           -0.303704	            0.032370	           -0.554090	           -0.029479
            2.127000	           -0.065591	            0.320801	            0.025561	            0.410830	            0.001970	           -0.200959	            0.014120	            0.020423	           -0.013472	          -32.541521	          562.142631	           29.956162	            0.963921	            0.000372	           -0.303990	            0.034254	           -0.591725	           -0.031533
            2.128000	           -0.044937	           -0.157973	            0.070265	            0.410830	            0.001970	           -0.200959	           -0.019396	            0.002190	            0.028154	          -32.037093	          559.900960	           29.779652	            0.964299	            0.000370	           -0.303840	            0.034346	           -0.600261	           -0.031926
            2.129000	           -0.083594	           -0.238493	            0.070169	            0.410830	            0.001970	           -0.200959	           -0.035781	            0.019673	            0.090521	          -31.549655	          557.260333	           29.586640	            0.964759	            0.000368	           -0.303877	            0.034581	           -0.610802	           -0.032429
            2.130000	           -0.059140	            0.079920	            0.055537	            0.410830	            0.001970	           -0.200959	            0.098106	            0.008677	            0.090473	          -31.077564	          554.619137	           29.332072	            0.965224	            0.000365	           -0.303732	            0.035131	           -0.626956	           -0.033158
            2.131000	           -0.043446	            0.160472	            0.071013	            0.410830	            0.001970	           -0.200959	            0.014293	            0.005339	           -0.013312	          -30.606439	          551.739670	           29.100052	            0.965681	            0.000364	           -0.303942	            0.035681	           -0.643210	           -0.033924
            2.132000	           -0.036082	            0.081677	            0.070865	            0.410830	            0.001970	           -0.200959	           -0.103162	            0.005780	            0.007210	          -30.079994	          549.260371	           28.861379	            0.965760	            0.000364	           -0.304085	            0.036889	           -0.673597	           -0.035395
            2.133000	           -0.051844	            0.001463	            0.062976	            0.410830	            0.001970	           -0.200959	           -0.119793	            0.002192	            0.069456	          -29.588925	          547.499612	           28.555633	            0.966407	            0.000362	           -0.304252	            0.037957	           -0.702335	           -0.036631
            2.134000	           -0.052580	           -0.158488	            0.047327	            0.410830	            0.001970	           -0.200959	           -0.052672	            0.006613	            0.069670	          -29.108210	          545.099523	           28.263476	            0.966747	            0.000361	           -0.304300	            0.038058	           -0.712707	           -0.036954
            2.135000	           -0.044646	           -0.079061	            0.032179	            0.410830	            0.001970	           -0.200959	           -0.002339	            0.010463	            0.049010	          -28.599434	          542.058758	           27.884918	            0.967161	            0.000359	           -0.304100	            0.038541	           -0.730489	           -0.037578
            2.136000	           -0.074452	            0.081168	            0.009628	            0.410830	            0.001970	           -0.200959	            0.030839	            0.012974	            0.090263	          -28.102730	          539.817783	           27.547156	            0.967489	            0.000357	           -0.303945	            0.038354	           -0.736725	           -0.037595
            2.137000	           -0.020901	            0.080116	            0.063149	            0.410830	            0.001970	           -0.200959	            0.097940	            0.004296	            0.090392	          -27.612656	          537.818694	           27.179197	            0.967603	            0.000357	           -0.304105	            0.040407	           -0.787015	           -0.039773
            2.138000	           -0.091610	           -0.317930	            0.062239	            0.410830	            0.001970	           -0.200959	            0.014251	           -0.000039	            0.069788	          -27.083624	          535.977217	           26.796373	            0.968239	            0.000354	           -0.304066	            0.040682	           -0.805091	           -0.040251
            2.139000	           -0.061429	           -0.397468	            0.054375	            0.410830	            0.001970	           -0.200959	            0.030971	            0.001231	            0.007661	          -26.568314	          534.537218	           26.307225	            0.968406	            0.000353	           -0.304080	            0.041412	           -0.833178	           -0.041005
            2.140000	           -0.053068	           -0.239141	            0.070057	            0.410830	            0.001970	           -0.200959	            0.064547	            0.005502	            0.173449	          -26.012215	          531.817046	           25.937266	            0.968801	            0.000352	           -0.304096	            0.041840	           -0.855422	           -0.041720
            2.141000	           -0.076011	           -0.238106	            0.031796	            0.410830	            0.001970	           -0.200959	            0.064450	            0.006177	            0.049061	          -25.458184	          530.455104	           25.517447	            0.969079	            0.000350	           -0.303818	            0.042427	           -0.884031	           -0.042526
            2.142000	           -0.072562	            0.480083	            0.048776	            0.410830	            0.001970	           -0.200959	           -0.052950	            0.002717	            0.069232	          -24.933248	          529.494787	           25.006629	            0.969506	            0.000348	           -0.303976	            0.042796	           -0.908845	           -0.042922
            2.143000	           -0.064838	            0.479523	            0.102376	            0.410830	            0.001970	           -0.200959	           -0.052819	           -0.000099	            0.069297	          -24.360873	          527.015234	           24.506656	            0.969843	            0.000347	           -0.304062	            0.043523	           -0.941559	           -0.043783
            2.144000	           -0.051483	            0.080246	            0.017204	            0.410830	            0.001970	           -0.200959	            0.031054	           -0.002578	            0.090368	          -23.821517	          525.813776	           24.079768	            0.970106	            0.000346	           -0.303894	            0.043762	           -0.965964	           -0.044237
            2.145000	           -0.067914	           -0.157599	            0.047275	            0.410830	            0.001970	           -0.200959	           -0.119840	           -0.001690	            0.028062	          -23.284878	          523.973748	           23.543295	            0.970448	            0.000344	           -0.303917	            0.044081	           -0.991948	           -0.044570
            2.146000	           -0.074046	            0.162888	            0.048071	            0.410830	            0.001970	           -0.200959	           -0.019816	            0.007697	           -0.096543	          -22.724497	          522.294370	           23.084282	            0.970535	            0.000344	           -0.304052	            0.044678	           -1.026872	           -0.045386
            2.147000	           -0.045038	           -0.157921	            0.093203	            0.410830	            0.001970	           -0.200959	           -0.019554	            0.005672	            0.110970	          -22.193506	          520.932133	           22.541625	            0.971141	            0.000341	           -0.303770	            0.044722	           -1.049730	           -0.045424
            2.148000	           -0.084521	           -0.397039	            0.115634	            0.410830	            0.001970	           -0.200959	           -0.069543	            0.016108	            0.048981	          -21.671202	          519.333515	           21.982618	            0.971581	            0.000341	           -0.304187	            0.046057	           -1.103711	           -0.046718
            2.149000	           -0.033485	            0.640302	            0.049139	            0.410830	            0.001970	           -0.200959	           -0.053188	           -0.001926	           -0.013853	          -21.128940	          518.850789	           21.458003	            0.971641	            0.000339	           -0.303654	            0.045462	           -1.116384	           -0.046170
            2.150000	           -0.054213	           -0.476597	            0.054206	            0.410830	            0.001970	           -0.200959	           -0.052871	            0.010382	            0.028277	          -20.598257	          517.410087	           20.930379	            0.972144	            0.000337	           -0.303668	            0.046196	           -1.160414	           -0.046941
            2.151000	           -0.084468	           -0.396002	            0.046681	            0.410830	            0.001970	           -0.200959	            0.030543	           -0.000580	           -0.033996	          -20.073628	          516.370285	           20.388628	            0.972155	            0.000337	           -0.303675	            0.046658	           -1.200210	           -0.047390
            2.152000	           -0.043875	            0.081783	            0.032537	            0.410830	            0.001970	           -0.200959	           -0.036319	            0.006646	            0.048659	          -19.510626	          515.328891	           19.885437	            0.972730	            0.000334	           -0.303683	            0.046311	           -1.223210	           -0.047201
            2.153000	           -0.060038	           -0.077303	            0.062754	            0.410830	            0.001970	           -0.200959	           -0.069750	            0.008696	           -0.034165	          -18.985008	          514.529512	           19.328859	            0.972753	            0.000335	           -0.303827	            0.047194	           -1.279058	           -0.048049
            2.154000	           -0.076413	           -0.317850	            0.077506	            0.410830	            0.001970	           -0.200959	           -0.019327	            0.001699	            0.111156	          -18.446695	          513.089617	           18.855080	            0.973181	            0.000333	           -0.304040	            0.046963	           -1.306261	           -0.048003
